<?xml version="1.0" encoding="UTF-8"?>
<svg id="Layer_2" data-name="Layer 2" xmlns="http://www.w3.org/2000/svg" viewBox="0 0 242.64 199.8">
  <g id="Layer_1-2" data-name="Layer 1">
    <g>
      <path d="M225.7,49.44c-.05-.27-.12-.54-.21-.79-.39-1.02-1.16-1.85-2.14-2.31-.49-.23-1.04-.37-1.62-.39-6.46-.23-12.95-.26-19.45-.08-1.63.05-3.25.11-4.88.18-3.25.15-6.5.35-9.75.62-6.5.53-12.98,1.29-19.43,2.31-8.06,1.27-16.06,2.94-23.94,5.05-1.69.44-3.37.9-5.04,1.38-.39.11-.78.22-1.17.34-1.61.47-3.21.96-4.81,1.47-.33.11-.67.22-1,.33-1.33.43-2.66.88-3.98,1.34-.28.1-.56.19-.84.28-.15.05-.3.11-.45.17-1.48.53-2.96,1.07-4.43,1.63-.51.2-1.02.4-1.53.59-1.19.46-2.37.94-3.54,1.43-.31.13-.62.24-.93.37-2.73,1.15-5.43,2.37-8.1,3.63-2.57,1.21-5.12,2.46-7.63,3.77-3.42,1.79-6.78,3.67-10.08,5.65-2.21,1.32-4.38,2.7-6.54,4.1-.03.02-.06.04-.09.06,0,0,0,0,0,0,0,0,0,0,0,0-1.94,1.26-3.86,2.56-5.76,3.89,0,0,0,0,0,0,0,0,0,0,0,0-.1.07-.19.13-.29.2-.07.05-.14.1-.22.15,0,0,0,0,0,0-.95.67-1.9,1.35-2.84,2.03-.09.07-.18.13-.27.2,0,0,0,0,0,0,0,0,0,0,0,0-1.72,1.26-3.41,2.54-5.09,3.85,0,0,0,0,0,0,0,0,0,0,0,0-.34.26-.67.52-1.01.79h0c-.84.66-1.67,1.33-2.5,2,0,0,0,0,0,0-.1.08-.21.17-.31.26,0,0,0,0,0,0-1.61,1.31-3.19,2.65-4.76,4.01,0,0,0,0,0,0,0,0,0,0,0,0-.41.36-.83.72-1.24,1.08-.5.44-1,.87-1.5,1.31-2.85,2.57-5.64,5.22-8.35,7.94-7.38,7.41-14.22,15.39-20.47,23.86.91-4.29,1.88-8.61,2.92-12.95.41-1.69.82-3.39,1.25-5.08.85-3.39,1.75-6.77,2.69-10.13.58-2.07,1.18-4.13,1.79-6.19,1.37-4.62,2.83-9.18,4.38-13.65.77-2.23,1.58-4.42,2.39-6.6.72-1.92,1.47-3.83,2.23-5.7.52-1.28,1.05-2.55,1.58-3.8,1.66-3.89,3.39-7.67,5.22-11.29,2.14-4.22,4.4-8.24,6.79-12,1.59-2.51,3.24-4.9,4.95-7.17.85-1.13,1.72-2.24,2.61-3.31.66-.76.97-1.71.94-2.66,0-.24-.04-.47-.09-.7-.08-.34-.21-.66-.38-.97-.18-.33-.39-.65-.67-.93-1.51-1.49-3.94-1.48-5.44.03-1.24,1.25-2.43,2.54-3.59,3.86-.15.18-.31.35-.46.53-.78.9-1.54,1.82-2.28,2.74-2.62,3.26-5.05,6.66-7.32,10.13-1.99,3.04-3.87,6.14-5.65,9.29-1.79,3.15-3.48,6.34-5.1,9.58-3.24,6.47-6.17,13.09-8.92,19.77-1.67,4.18-3.28,8.38-4.83,12.61-6.97,19.01-12.69,38.44-17.43,58.11-.53,2.19-1.04,4.38-1.55,6.57-1.01,4.38-1.97,8.78-2.88,13.18s-1.79,8.82-2.62,13.24c-.03.39-.05.76-.05,1.13,0,.73.07,1.43.19,2.09.19.99.51,1.9.94,2.72.29.55.62,1.05,1,1.52.19.23.39.45.59.67,1.86,1.9,4.46,2.96,7.09,3.03,0,0,0,0,.01,0,.87.02,1.75-.06,2.6-.26.57-.13,1.13-.32,1.67-.56,1.08-.47,2.1-1.16,2.98-2.06.88-.91,1.62-2.03,2.17-3.39.14-.34.26-.69.37-1.06,1.34-4.37,2.85-8.69,4.51-12.95,3.88-9.93,8.62-19.53,14.12-28.68,3.14-5.23,6.53-10.31,10.15-15.23.86-1.16,1.73-2.32,2.61-3.46h31.87l14.24-43.14c4.05-2.7,8.21-5.26,12.46-7.64.15-.08.32-.16.5-.26,1.25-.65,3.13-1.66,5.01-2.65.27-.14.54-.28.8-.42.8-.42,1.58-.82,2.3-1.18.24-.12.47-.23.69-.34.48-.24.91-.44,1.29-.61l1.24,3.83,17.01,52.41h38.64l-22.75-64.81-1.33-3.79c.83-.23,1.66-.45,2.49-.66,12.04-3.23,24.37-5.5,36.84-6.88,2.77-.31,5.55-.57,8.33-.79,4.18-.33,8.36-.57,12.56-.71,2.8-.1,5.6-.15,8.4-.17.28,0,.55-.03.81-.09,1.85-.38,3.26-1.98,3.34-3.95h0c.01-.29,0-.57-.05-.85Z"/>
      <path d="M106.99,58.33l6.81-3.12c10.32-4.52,21.09-8.29,32.3-11.29L130.68,0h-39.64l-31.12,89.16c14.23-12.32,29.98-22.64,47.06-30.84Z"/>
    </g>
    <ellipse cx="236.61" cy="50.26" rx="6.02" ry="3.97"/>
  </g>
</svg>